<svg width="14" height="16" viewBox="0 0 14 16" fill="none" xmlns="http://www.w3.org/2000/svg">
<path d="M6.56116 15.5C7.05842 15.5 7.5353 15.3025 7.88691 14.9508C8.23853 14.5992 8.43606 14.1224 8.43606 13.6251H4.68627C4.68627 14.1224 4.8838 14.5992 5.23541 14.9508C5.58702 15.3025 6.06391 15.5 6.56116 15.5ZM6.56116 2.29885L5.81402 2.44978C4.96653 2.62245 4.20473 3.08265 3.65756 3.75247C3.11039 4.4223 2.81146 5.26061 2.81137 6.12551C2.81137 6.71423 2.68575 8.18508 2.38108 9.63344C2.23109 10.3525 2.0286 11.1015 1.75955 11.7502H11.3628C11.0937 11.1015 10.8922 10.3534 10.7412 9.63344C10.4366 8.18508 10.311 6.71423 10.311 6.12551C10.3106 5.26077 10.0116 4.42268 9.46447 3.75305C8.91732 3.08342 8.15564 2.62336 7.30831 2.45071L6.56116 2.29885ZM12.3921 11.7502C12.6011 12.1692 12.843 12.5011 13.1233 12.6876H-0.000976562C0.279321 12.5011 0.521182 12.1692 0.730233 11.7502C1.57394 10.0628 1.87392 6.95047 1.87392 6.12551C1.87392 3.85689 3.48633 1.96324 5.6284 1.53108C5.61532 1.40073 5.6297 1.26908 5.67062 1.14463C5.71154 1.02019 5.77809 0.905695 5.86597 0.808545C5.95386 0.711396 6.06113 0.633745 6.18087 0.580601C6.30061 0.527457 6.43016 0.5 6.56116 0.5C6.69217 0.5 6.82172 0.527457 6.94146 0.580601C7.0612 0.633745 7.16847 0.711396 7.25635 0.808545C7.34424 0.905695 7.41079 1.02019 7.45171 1.14463C7.49263 1.26908 7.50701 1.40073 7.49392 1.53108C8.5535 1.7466 9.50604 2.32168 10.1902 3.15896C10.8744 3.99623 11.2483 5.04423 11.2484 6.12551C11.2484 6.95047 11.5484 10.0628 12.3921 11.7502Z" fill="black"/>
</svg>
