<svg width="19" height="16" viewBox="0 0 19 16" fill="none" xmlns="http://www.w3.org/2000/svg">
<path d="M1.76481 2.71169C2.77786 2.28815 4.23047 1.83142 5.64301 1.68948C7.16545 1.53609 8.45666 1.7616 9.20529 2.55029V13.7064C8.135 13.0997 6.77855 13.0162 5.5274 13.1421C4.17667 13.2795 2.81449 13.6698 1.76481 14.0704V2.71169ZM10.35 2.55029C11.0986 1.7616 12.3898 1.53609 13.9123 1.68948C15.3248 1.83142 16.7774 2.28815 17.7905 2.71169V14.0704C16.7396 13.6698 15.3786 13.2783 14.0279 13.1432C12.7756 13.0162 11.4203 13.0986 10.35 13.7064V2.55029ZM9.77763 1.51549C8.65011 0.545935 7.0155 0.401704 5.5274 0.550514C3.79434 0.725651 2.04526 1.31975 0.955511 1.8154C0.855521 1.86087 0.77073 1.93416 0.711259 2.02651C0.651787 2.11887 0.620148 2.22638 0.620117 2.33623V14.9278C0.620144 15.0236 0.644198 15.1178 0.690077 15.2019C0.735956 15.2859 0.802193 15.3571 0.882721 15.4089C0.963249 15.4608 1.05549 15.4916 1.15101 15.4985C1.24652 15.5054 1.34224 15.4883 1.42941 15.4486C2.43903 14.9908 4.06563 14.4402 5.64187 14.2811C7.25474 14.1185 8.60662 14.3806 9.3312 15.285C9.38483 15.3518 9.45279 15.4057 9.53006 15.4428C9.60733 15.4799 9.69193 15.4991 9.77763 15.4991C9.86333 15.4991 9.94794 15.4799 10.0252 15.4428C10.1025 15.4057 10.1704 15.3518 10.2241 15.285C10.9487 14.3806 12.3005 14.1185 13.9123 14.2811C15.4896 14.4402 17.1174 14.9908 18.1259 15.4486C18.213 15.4883 18.3088 15.5054 18.4043 15.4985C18.4998 15.4916 18.592 15.4608 18.6725 15.4089C18.7531 15.3571 18.8193 15.2859 18.8652 15.2019C18.9111 15.1178 18.9351 15.0236 18.9352 14.9278V2.33623C18.9351 2.22638 18.9035 2.11887 18.844 2.02651C18.7845 1.93416 18.6997 1.86087 18.5998 1.8154C17.51 1.31975 15.7609 0.725651 14.0279 0.550514C12.5398 0.40056 10.9052 0.545935 9.77763 1.51549Z" fill="black"/>
</svg>
