<svg width="17" height="16" viewBox="0 0 17 16" fill="none" xmlns="http://www.w3.org/2000/svg">
<path d="M9.11636 1.03576C8.99715 0.988079 8.86417 0.988079 8.74497 1.03576L2.77696 3.42297L5.18066 4.38445L11.3344 1.92297L9.11636 1.03576ZM12.6807 2.46148L6.52696 4.92297L8.93066 5.88445L15.0844 3.42297L12.6807 2.46148ZM15.9307 4.16148L9.43066 6.76148V14.6845L15.9307 12.0845V4.16148ZM8.43066 14.6845V6.76148L1.93066 4.16148V12.0845L8.43066 14.6845ZM8.37358 0.107285C8.73119 -0.0357616 9.13013 -0.0357617 9.48775 0.107285L16.6164 2.95873C16.8062 3.03466 16.9307 3.21851 16.9307 3.42297V12.0845C16.9307 12.4934 16.6817 12.8611 16.3021 13.0129L9.11636 15.8872C8.99715 15.9349 8.86417 15.9349 8.74497 15.8872L1.55927 13.0129C1.17962 12.8611 0.930664 12.4934 0.930664 12.0845V3.42297C0.930664 3.21851 1.05514 3.03466 1.24497 2.95873L8.37358 0.107285Z" fill="black"/>
</svg>
