<svg width="26" height="24" viewBox="0 0 26 24" fill="none" xmlns="http://www.w3.org/2000/svg">
<path d="M0 0.857143C0 0.629814 0.0913101 0.411797 0.253843 0.251051C0.416376 0.090306 0.636818 0 0.866675 0H3.4667C3.66002 5.28197e-05 3.84778 0.0640297 4.0001 0.181757C4.15243 0.299484 4.26059 0.464201 4.30737 0.649714L5.00938 3.42857H25.1336C25.2652 3.42861 25.3951 3.4583 25.5134 3.51541C25.6317 3.57251 25.7353 3.65551 25.8164 3.75813C25.8974 3.86074 25.9537 3.98026 25.9811 4.10761C26.0084 4.23497 26.0061 4.36681 25.9742 4.49314L23.3742 14.7789C23.3274 14.9644 23.2193 15.1291 23.0669 15.2468C22.9146 15.3645 22.7269 15.4285 22.5335 15.4286H6.9334C6.74007 15.4285 6.55232 15.3645 6.39999 15.2468C6.24766 15.1291 6.13951 14.9644 6.09272 14.7789L2.79069 1.71429H0.866675C0.636818 1.71429 0.416376 1.62398 0.253843 1.46323C0.0913101 1.30249 0 1.08447 0 0.857143ZM5.44272 5.14286L6.30939 8.57143H8.66675V5.14286H5.44272ZM10.4001 5.14286V8.57143H13.8668V5.14286H10.4001ZM15.6001 5.14286V8.57143H19.0668V5.14286H15.6001ZM20.8002 5.14286V8.57143H23.1575L24.0242 5.14286H20.8002ZM22.7242 10.2857H20.8002V13.7143H21.8575L22.7242 10.2857ZM19.0668 10.2857H15.6001V13.7143H19.0668V10.2857ZM13.8668 10.2857H10.4001V13.7143H13.8668V10.2857ZM8.66675 10.2857H6.74273L7.6094 13.7143H8.66675V10.2857ZM8.66675 18.8571C8.20703 18.8571 7.76615 19.0378 7.44108 19.3592C7.11602 19.6807 6.9334 20.1168 6.9334 20.5714C6.9334 21.0261 7.11602 21.4621 7.44108 21.7836C7.76615 22.1051 8.20703 22.2857 8.66675 22.2857C9.12646 22.2857 9.56734 22.1051 9.89241 21.7836C10.2175 21.4621 10.4001 21.0261 10.4001 20.5714C10.4001 20.1168 10.2175 19.6807 9.89241 19.3592C9.56734 19.0378 9.12646 18.8571 8.66675 18.8571ZM5.20005 20.5714C5.20005 19.6621 5.56529 18.79 6.21542 18.1471C6.86555 17.5041 7.74732 17.1429 8.66675 17.1429C9.58617 17.1429 10.4679 17.5041 11.1181 18.1471C11.7682 18.79 12.1334 19.6621 12.1334 20.5714C12.1334 21.4807 11.7682 22.3528 11.1181 22.9958C10.4679 23.6388 9.58617 24 8.66675 24C7.74732 24 6.86555 23.6388 6.21542 22.9958C5.56529 22.3528 5.20005 21.4807 5.20005 20.5714ZM20.8002 18.8571C20.3405 18.8571 19.8996 19.0378 19.5745 19.3592C19.2495 19.6807 19.0668 20.1168 19.0668 20.5714C19.0668 21.0261 19.2495 21.4621 19.5745 21.7836C19.8996 22.1051 20.3405 22.2857 20.8002 22.2857C21.2599 22.2857 21.7008 22.1051 22.0259 21.7836C22.3509 21.4621 22.5335 21.0261 22.5335 20.5714C22.5335 20.1168 22.3509 19.6807 22.0259 19.3592C21.7008 19.0378 21.2599 18.8571 20.8002 18.8571ZM17.3335 20.5714C17.3335 19.6621 17.6987 18.79 18.3489 18.1471C18.999 17.5041 19.8808 17.1429 20.8002 17.1429C21.7196 17.1429 22.6014 17.5041 23.2515 18.1471C23.9016 18.79 24.2669 19.6621 24.2669 20.5714C24.2669 21.4807 23.9016 22.3528 23.2515 22.9958C22.6014 23.6388 21.7196 24 20.8002 24C19.8808 24 18.999 23.6388 18.3489 22.9958C17.6987 22.3528 17.3335 21.4807 17.3335 20.5714Z" fill="black"/>
</svg>
