<svg width="16" height="16" viewBox="0 0 16 16" fill="none" xmlns="http://www.w3.org/2000/svg">
<g clip-path="url(#clip0_38_737)">
<path d="M8.18848 3.78125C8.18848 3.65693 8.13909 3.5377 8.05118 3.44979C7.96328 3.36189 7.84405 3.3125 7.71973 3.3125C7.59541 3.3125 7.47618 3.36189 7.38827 3.44979C7.30036 3.5377 7.25098 3.65693 7.25098 3.78125V8.9375C7.251 9.02012 7.27287 9.10127 7.31436 9.17273C7.35585 9.24418 7.41548 9.30339 7.48723 9.34438L10.7685 11.2194C10.8762 11.2776 11.0023 11.2913 11.12 11.2577C11.2377 11.2241 11.3376 11.1458 11.3983 11.0396C11.4591 10.9333 11.4758 10.8075 11.445 10.689C11.4142 10.5706 11.3383 10.4688 11.2335 10.4056L8.18848 8.66563V3.78125Z" fill="black"/>
<path d="M8.18848 15.5C10.1776 15.5 12.0853 14.7098 13.4918 13.3033C14.8983 11.8968 15.6885 9.98912 15.6885 8C15.6885 6.01088 14.8983 4.10322 13.4918 2.6967C12.0853 1.29018 10.1776 0.5 8.18848 0.5C6.19935 0.5 4.2917 1.29018 2.88518 2.6967C1.47865 4.10322 0.688477 6.01088 0.688477 8C0.688477 9.98912 1.47865 11.8968 2.88518 13.3033C4.2917 14.7098 6.19935 15.5 8.18848 15.5ZM14.751 8C14.751 9.74048 14.0596 11.4097 12.8289 12.6404C11.5982 13.8711 9.92896 14.5625 8.18848 14.5625C6.44799 14.5625 4.7788 13.8711 3.54809 12.6404C2.31738 11.4097 1.62598 9.74048 1.62598 8C1.62598 6.25952 2.31738 4.59032 3.54809 3.35961C4.7788 2.1289 6.44799 1.4375 8.18848 1.4375C9.92896 1.4375 11.5982 2.1289 12.8289 3.35961C14.0596 4.59032 14.751 6.25952 14.751 8Z" fill="black"/>
</g>
<defs>
<clipPath id="clip0_38_737">
<rect width="15" height="15" fill="white" transform="translate(0.688477 0.5)"/>
</clipPath>
</defs>
</svg>
