<svg width="17" height="16" viewBox="0 0 17 16" fill="none" xmlns="http://www.w3.org/2000/svg">
<path d="M0.30957 1.57143C0.30957 1.28727 0.422453 1.01475 0.623384 0.813814C0.824316 0.612882 1.09684 0.5 1.381 0.5H13.1667C13.4509 0.5 13.7234 0.612882 13.9243 0.813814C14.1253 1.01475 14.2381 1.28727 14.2381 1.57143V2.64286H14.7739C15.2001 2.64286 15.6089 2.81218 15.9103 3.11358C16.2117 3.41498 16.381 3.82376 16.381 4.25V11.75C16.381 12.1762 16.2117 12.585 15.9103 12.8864C15.6089 13.1878 15.2001 13.3571 14.7739 13.3571H14.1846C14.0611 13.9622 13.7323 14.5059 13.254 14.8964C12.7756 15.2869 12.1771 15.5001 11.5596 15.5H2.98814C2.27774 15.5 1.59644 15.2178 1.09411 14.7155C0.591776 14.2131 0.30957 13.5318 0.30957 12.8214V1.57143ZM14.2381 12.2857H14.7739C14.9159 12.2857 15.0522 12.2293 15.1527 12.1288C15.2531 12.0283 15.3096 11.8921 15.3096 11.75V4.25C15.3096 4.10792 15.2531 3.97166 15.1527 3.87119C15.0522 3.77073 14.9159 3.71429 14.7739 3.71429H14.2381V12.2857ZM13.1667 1.57143H1.381V12.8214C1.381 13.2477 1.55032 13.6565 1.85172 13.9578C2.15312 14.2592 2.5619 14.4286 2.98814 14.4286H11.5596C11.9858 14.4286 12.3946 14.2592 12.696 13.9578C12.9974 13.6565 13.1667 13.2477 13.1667 12.8214V1.57143Z" fill="black"/>
</svg>
