<svg width="16" height="16" viewBox="0 0 16 16" fill="none" xmlns="http://www.w3.org/2000/svg">
<g clip-path="url(#clip0_38_742)">
<path d="M12.5654 1.4375C13.0627 1.4375 13.5396 1.63504 13.8913 1.98667C14.2429 2.33831 14.4404 2.81522 14.4404 3.3125V12.6875C14.4404 13.1848 14.2429 13.6617 13.8913 14.0133C13.5396 14.365 13.0627 14.5625 12.5654 14.5625H3.19043C2.69315 14.5625 2.21624 14.365 1.8646 14.0133C1.51297 13.6617 1.31543 13.1848 1.31543 12.6875V3.3125C1.31543 2.81522 1.51297 2.33831 1.8646 1.98667C2.21624 1.63504 2.69315 1.4375 3.19043 1.4375H12.5654ZM3.19043 0.5C2.44451 0.5 1.72914 0.796316 1.20169 1.32376C0.674246 1.85121 0.37793 2.56658 0.37793 3.3125L0.37793 12.6875C0.37793 13.4334 0.674246 14.1488 1.20169 14.6762C1.72914 15.2037 2.44451 15.5 3.19043 15.5H12.5654C13.3114 15.5 14.0267 15.2037 14.5542 14.6762C15.0816 14.1488 15.3779 13.4334 15.3779 12.6875V3.3125C15.3779 2.56658 15.0816 1.85121 14.5542 1.32376C14.0267 0.796316 13.3114 0.5 12.5654 0.5L3.19043 0.5Z" fill="black"/>
<path d="M5.53418 4.25C5.53418 4.62296 5.38602 4.98065 5.1223 5.24437C4.85858 5.50809 4.50089 5.65625 4.12793 5.65625C3.75497 5.65625 3.39728 5.50809 3.13356 5.24437C2.86984 4.98065 2.72168 4.62296 2.72168 4.25C2.72168 3.87704 2.86984 3.51935 3.13356 3.25563C3.39728 2.99191 3.75497 2.84375 4.12793 2.84375C4.50089 2.84375 4.85858 2.99191 5.1223 3.25563C5.38602 3.51935 5.53418 3.87704 5.53418 4.25ZM13.0342 4.25C13.0342 4.62296 12.886 4.98065 12.6223 5.24437C12.3586 5.50809 12.0009 5.65625 11.6279 5.65625C11.255 5.65625 10.8973 5.50809 10.6336 5.24437C10.3698 4.98065 10.2217 4.62296 10.2217 4.25C10.2217 3.87704 10.3698 3.51935 10.6336 3.25563C10.8973 2.99191 11.255 2.84375 11.6279 2.84375C12.0009 2.84375 12.3586 2.99191 12.6223 3.25563C12.886 3.51935 13.0342 3.87704 13.0342 4.25ZM13.0342 11.75C13.0342 12.123 12.886 12.4806 12.6223 12.7444C12.3586 13.0081 12.0009 13.1562 11.6279 13.1562C11.255 13.1562 10.8973 13.0081 10.6336 12.7444C10.3698 12.4806 10.2217 12.123 10.2217 11.75C10.2217 11.377 10.3698 11.0194 10.6336 10.7556C10.8973 10.4919 11.255 10.3438 11.6279 10.3438C12.0009 10.3438 12.3586 10.4919 12.6223 10.7556C12.886 11.0194 13.0342 11.377 13.0342 11.75ZM5.53418 11.75C5.53418 12.123 5.38602 12.4806 5.1223 12.7444C4.85858 13.0081 4.50089 13.1562 4.12793 13.1562C3.75497 13.1562 3.39728 13.0081 3.13356 12.7444C2.86984 12.4806 2.72168 12.123 2.72168 11.75C2.72168 11.377 2.86984 11.0194 3.13356 10.7556C3.39728 10.4919 3.75497 10.3438 4.12793 10.3438C4.50089 10.3438 4.85858 10.4919 5.1223 10.7556C5.38602 11.0194 5.53418 11.377 5.53418 11.75ZM9.28418 8C9.28418 8.37296 9.13602 8.73065 8.8723 8.99437C8.60858 9.25809 8.25089 9.40625 7.87793 9.40625C7.50497 9.40625 7.14728 9.25809 6.88356 8.99437C6.61984 8.73065 6.47168 8.37296 6.47168 8C6.47168 7.62704 6.61984 7.26935 6.88356 7.00563C7.14728 6.74191 7.50497 6.59375 7.87793 6.59375C8.25089 6.59375 8.60858 6.74191 8.8723 7.00563C9.13602 7.26935 9.28418 7.62704 9.28418 8Z" fill="black"/>
</g>
<defs>
<clipPath id="clip0_38_742">
<rect width="15" height="15" fill="white" transform="translate(0.37793 0.5)"/>
</clipPath>
</defs>
</svg>
