<svg width="21" height="16" viewBox="0 0 21 16" fill="none" xmlns="http://www.w3.org/2000/svg">
<path d="M18.8174 15.5C18.8174 15.5 20.0674 15.5 20.0674 14.25C20.0674 13 18.8174 9.25 13.8174 9.25C8.81738 9.25 7.56738 13 7.56738 14.25C7.56738 15.5 8.81738 15.5 8.81738 15.5H18.8174ZM8.84488 14.25C8.83565 14.2487 8.82647 14.2471 8.81738 14.245C8.81863 13.915 9.02613 12.9575 9.76738 12.095C10.4574 11.2863 11.6699 10.5 13.8174 10.5C15.9636 10.5 17.1761 11.2875 17.8674 12.095C18.6086 12.9575 18.8149 13.9163 18.8174 14.245L18.8074 14.2475C18.8016 14.2485 18.7957 14.2493 18.7899 14.25H8.84488ZM13.8174 6.75C14.4804 6.75 15.1163 6.48661 15.5851 6.01777C16.054 5.54893 16.3174 4.91304 16.3174 4.25C16.3174 3.58696 16.054 2.95107 15.5851 2.48223C15.1163 2.01339 14.4804 1.75 13.8174 1.75C13.1543 1.75 12.5185 2.01339 12.0496 2.48223C11.5808 2.95107 11.3174 3.58696 11.3174 4.25C11.3174 4.91304 11.5808 5.54893 12.0496 6.01777C12.5185 6.48661 13.1543 6.75 13.8174 6.75ZM17.5674 4.25C17.5674 4.74246 17.4704 5.23009 17.2819 5.68506C17.0935 6.14003 16.8173 6.55343 16.469 6.90165C16.1208 7.24987 15.7074 7.52609 15.2524 7.71455C14.7975 7.903 14.3098 8 13.8174 8C13.3249 8 12.8373 7.903 12.3823 7.71455C11.9273 7.52609 11.514 7.24987 11.1657 6.90165C10.8175 6.55343 10.5413 6.14003 10.3528 5.68506C10.1644 5.23009 10.0674 4.74246 10.0674 4.25C10.0674 3.25544 10.4625 2.30161 11.1657 1.59835C11.869 0.895088 12.8228 0.5 13.8174 0.5C14.8119 0.5 15.7658 0.895088 16.469 1.59835C17.1723 2.30161 17.5674 3.25544 17.5674 4.25ZM8.73738 9.6C8.23736 9.44255 7.72193 9.33904 7.19988 9.29125C6.90655 9.26336 6.61204 9.24959 6.31738 9.25C1.31738 9.25 0.0673828 13 0.0673828 14.25C0.0673828 15.0837 0.483633 15.5 1.31738 15.5H6.58738C6.40208 15.1098 6.30966 14.6819 6.31738 14.25C6.31738 12.9875 6.78863 11.6975 7.67988 10.62C7.98363 10.2525 8.33738 9.90875 8.73738 9.6ZM6.21738 10.5C5.47758 11.6116 5.07793 12.9148 5.06738 14.25H1.31738C1.31738 13.925 1.52238 12.9625 2.26738 12.095C2.94863 11.3 4.13238 10.525 6.21738 10.5013V10.5ZM1.94238 4.875C1.94238 3.88044 2.33747 2.92661 3.04073 2.22335C3.74399 1.52009 4.69782 1.125 5.69238 1.125C6.68694 1.125 7.64077 1.52009 8.34403 2.22335C9.04729 2.92661 9.44238 3.88044 9.44238 4.875C9.44238 5.86956 9.04729 6.82339 8.34403 7.52665C7.64077 8.22991 6.68694 8.625 5.69238 8.625C4.69782 8.625 3.74399 8.22991 3.04073 7.52665C2.33747 6.82339 1.94238 5.86956 1.94238 4.875ZM5.69238 2.375C5.02934 2.375 4.39346 2.63839 3.92462 3.10723C3.45577 3.57607 3.19238 4.21196 3.19238 4.875C3.19238 5.53804 3.45577 6.17393 3.92462 6.64277C4.39346 7.11161 5.02934 7.375 5.69238 7.375C6.35542 7.375 6.99131 7.11161 7.46015 6.64277C7.92899 6.17393 8.19238 5.53804 8.19238 4.875C8.19238 4.21196 7.92899 3.57607 7.46015 3.10723C6.99131 2.63839 6.35542 2.375 5.69238 2.375Z" fill="black"/>
</svg>
