<svg width="16" height="16" viewBox="0 0 16 16" fill="none" xmlns="http://www.w3.org/2000/svg">
<g clip-path="url(#clip0_38_750)">
<path d="M8.25684 14.5625C6.51635 14.5625 4.84716 13.8711 3.61645 12.6404C2.38574 11.4097 1.69434 9.74048 1.69434 8C1.69434 6.25952 2.38574 4.59032 3.61645 3.35961C4.84716 2.1289 6.51635 1.4375 8.25684 1.4375C9.99732 1.4375 11.6665 2.1289 12.8972 3.35961C14.1279 4.59032 14.8193 6.25952 14.8193 8C14.8193 9.74048 14.1279 11.4097 12.8972 12.6404C11.6665 13.8711 9.99732 14.5625 8.25684 14.5625ZM8.25684 15.5C10.246 15.5 12.1536 14.7098 13.5601 13.3033C14.9667 11.8968 15.7568 9.98912 15.7568 8C15.7568 6.01088 14.9667 4.10322 13.5601 2.6967C12.1536 1.29018 10.246 0.5 8.25684 0.5C6.26771 0.5 4.36006 1.29018 2.95354 2.6967C1.54701 4.10322 0.756836 6.01088 0.756836 8C0.756836 9.98912 1.54701 11.8968 2.95354 13.3033C4.36006 14.7098 6.26771 15.5 8.25684 15.5Z" fill="black"/>
<path d="M5.6833 5.92437C5.68202 5.95465 5.68694 5.98487 5.69777 6.01317C5.7086 6.04147 5.7251 6.06726 5.74626 6.08895C5.76743 6.11064 5.7928 6.12777 5.82083 6.13929C5.84886 6.15081 5.87894 6.15648 5.90924 6.15594H6.68268C6.81205 6.15594 6.91518 6.05 6.93205 5.92156C7.01643 5.30656 7.4383 4.85844 8.19018 4.85844C8.8333 4.85844 9.42205 5.18 9.42205 5.95344C9.42205 6.54875 9.07143 6.8225 8.51737 7.23875C7.88643 7.69719 7.38674 8.2325 7.42237 9.10156L7.42518 9.305C7.42616 9.36651 7.45129 9.42516 7.49514 9.46831C7.53899 9.51146 7.59804 9.53563 7.65955 9.53562H8.41987C8.48203 9.53562 8.54164 9.51093 8.5856 9.46698C8.62955 9.42302 8.65424 9.36341 8.65424 9.30125V9.20281C8.65424 8.52969 8.91018 8.33375 9.60112 7.80969C10.1721 7.37562 10.7674 6.89375 10.7674 5.88219C10.7674 4.46563 9.57112 3.78125 8.26143 3.78125C7.07362 3.78125 5.77237 4.33437 5.6833 5.92437ZM7.14299 11.3272C7.14299 11.8269 7.54143 12.1962 8.08987 12.1962C8.6608 12.1962 9.05362 11.8269 9.05362 11.3272C9.05362 10.8097 8.65987 10.4459 8.08893 10.4459C7.54143 10.4459 7.14299 10.8097 7.14299 11.3272Z" fill="black"/>
</g>
<defs>
<clipPath id="clip0_38_750">
<rect width="15" height="15" fill="white" transform="translate(0.756836 0.5)"/>
</clipPath>
</defs>
</svg>
