<svg width="40" height="39" viewBox="0 0 40 39" fill="none" xmlns="http://www.w3.org/2000/svg">
<path d="M29.3561 25.2116C31.7768 21.9906 32.861 17.997 32.3918 14.03C31.9226 10.0629 29.9346 6.41491 26.8256 3.81576C23.7166 1.2166 19.7159 -0.141997 15.6237 0.0117599C11.5316 0.165517 7.64992 1.82029 4.75524 4.64503C1.86055 7.46976 0.166365 11.2561 0.0116159 15.2466C-0.143133 19.2371 1.25297 23.1374 3.92062 26.1673C6.58826 29.1971 10.3307 31.1331 14.3993 31.5877C18.4678 32.0424 22.5623 30.9823 25.8638 28.6196H25.8613C25.9363 28.7171 26.0163 28.8097 26.1063 28.8999L35.7309 38.2852C36.1997 38.7427 36.8356 38.9998 37.4987 39C38.1619 39.0002 38.7979 38.7436 39.267 38.2865C39.7361 37.8294 39.9998 37.2093 40 36.5626C40.0002 35.916 39.737 35.2957 39.2683 34.8383L29.6436 25.4529C29.5543 25.3647 29.4581 25.2856 29.3561 25.2116ZM30.0011 15.8409C30.0011 17.6016 29.6455 19.3451 28.9545 20.9717C28.2635 22.5984 27.2507 24.0765 25.974 25.3215C24.6972 26.5665 23.1815 27.5541 21.5133 28.2279C19.8452 28.9017 18.0572 29.2485 16.2516 29.2485C14.446 29.2485 12.6581 28.9017 10.9899 28.2279C9.32177 27.5541 7.80604 26.5665 6.52928 25.3215C5.25252 24.0765 4.23974 22.5984 3.54877 20.9717C2.85779 19.3451 2.50215 17.6016 2.50215 15.8409C2.50215 12.2849 3.95075 8.87466 6.52928 6.36024C9.10781 3.84582 12.605 2.43324 16.2516 2.43324C19.8982 2.43324 23.3955 3.84582 25.974 6.36024C28.5525 8.87466 30.0011 12.2849 30.0011 15.8409Z" fill="black"/>
</svg>
